# xmcd CD database file
#
# Track frame offsets:
#	180
#	8543
#	21714
#	33972
#	48881
#	62495
#	79032
#	89470
#	102833
#	116833
#	131383
#	145828
#	164365
#	175585
#	189454
#	204823
#
# Disc length: 2921 seconds
#
# Revision: 0
# Processed by: cddbd v1.5.2PL0 Copyright (c) Steve Scherf et al.
# Submitted via: CDex 1.50Beta7
#
DISCID=c50b6710
DTITLE=Various Artist - The Lady Love´s Jazz Box 1 - CD 1 ## Various Artists
DYEAR=2005
DGENRE=Jazz
TTITLE0=Ella Fitzgerald - Old Mother Hubbard
TTITLE1=Helen Humes - Jumpin´ On Sugar Hill
TTITLE2=Ella Fitzgerald - As You Desire Me
TTITLE3=Dinah Washington - Cold Cold Heart
TTITLE4=Ella Fitzgerald - If It Weren´t For You
TTITLE5=Billie Holiday - Autumn In New York
TTITLE6=gracie Fields - Sally
TTITLE7=Billie Holiday - Easy To Love
TTITLE8=Dinah Washington - Don´t Get Around Much Any More
TTITLE9=Peggy Lee -  (Ah, The Apple Trees) When The World Was Young
TTITLE10=Dinah Washington - Am I Blue?
TTITLE11=Mary Lou Williams - Lullaby Of The Leaves
TTITLE12=Rosemary Clooney - You´ll Never Know
TTITLE13=Billie Holiday - Willow Weep For Me
TTITLE14=Rosemary Clooney - Blues In The Night
TTITLE15=Billie Holiday - What A Little Moonlight Can Do
EXTD=YEAR: 2005
EXTT0=
EXTT1=
EXTT2=
EXTT3=
EXTT4=
EXTT5=
EXTT6=
EXTT7=
EXTT8=
EXTT9=
EXTT10=
EXTT11=
EXTT12=
EXTT13=
EXTT14=
EXTT15=
PLAYORDER=
